Coordinates
version=1
nRows=29
nColumns=18
inDegrees=yes

Units are S.I. units (second, meters, Newtons, ...)
If the header above contains a line with 'inDegrees', this indicates whether rotational values are in degrees (yes) or radians (no).

endheader
time	ground_thorax_rot_x	ground_thorax_rot_y	ground_thorax_rot_z	ground_thorax_tx	ground_thorax_ty	ground_thorax_tz	clav_prot	clav_elev	scapula_abduction	scapula_elevation	scapula_upward_rot	scapula_winging	plane_elv	shoulder_elv	axial_rot	elbow_flexion	pro_sup
      2.72000000	      3.49072938	     -3.44102066	     -8.95666079	     -0.00481766	      0.00351264	      0.00159288	    -20.69506603	     -6.28048275	    -11.65661453	     -4.01966233	      7.74764343	      7.20906948	    -18.79464300	     19.97449795	     48.02731599	      0.00000000	     34.32000000
      2.73000000	      3.49090638	     -3.44218766	     -8.95757301	     -0.00487263	      0.00359079	      0.00151545	    -20.69506503	     -6.27991314	    -11.65711918	     -4.01901228	      7.74691263	      7.20905254	    -18.79523742	     19.97380346	     48.02717178	      0.00000000	     34.32000000
      2.74000000	      3.49055723	     -3.48391546	     -8.99322423	     -0.00475169	      0.00362830	      0.00159470	    -20.69219521	     -6.24718852	    -11.67898210	     -3.98271286	      7.70923669	      7.20676515	    -18.82941408	     19.93590234	     48.01866444	      0.00000000	     34.32000000
      2.75000000	      3.48649856	     -3.53573123	     -8.89052142	     -0.00482839	      0.00352355	      0.00152999	    -20.64251600	     -6.01143806	    -11.50100423	     -3.87370297	      7.98534379	      7.05579863	    -19.48913371	     19.59560226	     47.96258434	      0.00000000	     34.32000000
      2.76000000	      3.50391043	     -3.55336022	     -8.90284961	     -0.00476484	      0.00352243	      0.00151018	    -20.64224167	     -6.01037127	    -11.51185892	     -3.86691533	      7.96418846	      7.06058944	    -19.50112405	     19.58169724	     47.96199395	      0.00000000	     34.32000000
      2.77000000	      3.50518019	     -3.55344509	     -8.90217712	     -0.00472886	      0.00345119	      0.00142721	    -20.64215961	     -6.01103180	    -11.51185291	     -3.86726756	      7.96363410	      7.06093441	    -19.50123818	     19.58079466	     47.96197086	      0.00000000	     34.32000000
      2.78000000	      3.51995028	     -3.55519903	     -8.89386774	     -0.00478159	      0.00352921	      0.00145385	    -20.63943633	     -6.02211128	    -11.51214197	     -3.87171187	      7.94929389	      7.06779857	    -19.50842027	     19.55404004	     47.96129520	      0.00000000	     34.32000000
      2.79000000	      3.51922146	     -3.55627959	     -8.89502276	     -0.00487725	      0.00361421	      0.00144922	    -20.63957914	     -6.02144483	    -11.51270514	     -3.87111056	      7.94897336	      7.06767654	    -19.50887363	     19.55401333	     47.96128497	      0.00000000	     34.32000000
      2.80000000	      3.50097749	     -3.59594047	     -8.91593394	     -0.00481942	      0.00356961	      0.00151853	    -20.64282137	     -6.00251762	    -11.53319980	     -3.85084536	      7.92868785	      7.06668491	    -19.53139737	     19.53707173	     47.95965224	      0.00000000	     34.32000000
      2.81000000	      3.50153992	     -3.59676632	     -8.91611579	     -0.00487756	      0.00353846	      0.00149225	    -20.64284419	     -6.00257755	    -11.53352583	     -3.85073216	      7.92811465	      7.06684656	    -19.53175573	     19.53654769	     47.95959897	      0.00000000	     34.32000000
      2.82000000	      3.52498500	     -3.61633816	     -8.91598654	     -0.00485015	      0.00355813	      0.00154056	    -20.63903763	     -6.00802075	    -11.54096953	     -3.84657391	      7.89898583	      7.07534012	    -19.54716082	     19.50018726	     47.95635668	      0.00000000	     34.32000000
      2.83000000	      3.53415021	     -3.62768461	     -8.91764482	     -0.00480518	      0.00357123	      0.00155231	    -20.63505463	     -6.00971879	    -11.54597837	     -3.84099415	      7.87532767	      7.08122250	    -19.56483327	     19.46379112	     47.95327427	      0.00000000	     34.32000000
      2.84000000	      3.52799743	     -3.64750613	     -8.93154219	     -0.00475648	      0.00352690	      0.00156677	    -20.63312386	     -6.00079456	    -11.55940094	     -3.82596293	      7.84703781	      7.08495112	    -19.60340395	     19.41727697	     47.94835672	      0.00000000	     34.32000000
      2.85000000	      3.52948075	     -3.67540877	     -8.94811155	     -0.00473054	      0.00350556	      0.00157203	    -20.63401246	     -5.99116480	    -11.57786011	     -3.81054964	      7.81877673	      7.08874405	    -19.64139115	     19.37872690	     47.94329577	      0.00000000	     34.32000000
      2.86000000	      3.42514499	     -3.62828535	     -8.92770095	     -0.00475043	      0.00344895	      0.00144444	    -20.67777025	     -6.00706145	    -11.60600111	     -3.84938267	      7.90368371	      7.07792992	    -20.24657990	     19.14988410	     47.93815577	      0.00000000	     34.32000000
      2.87000000	      3.45657384	     -3.63571862	     -8.93101641	     -0.00471710	      0.00347442	      0.00142180	    -20.67493576	     -6.01556453	    -11.61095904	     -3.84949087	      7.88110939	      7.08593720	    -20.26059761	     19.13065362	     47.93821040	      0.00000000	     34.32000000
      2.88000000	      3.48163584	     -3.64041959	     -8.93795175	     -0.00467583	      0.00343559	      0.00138784	    -20.67266526	     -6.02388056	    -11.61700962	     -3.84944824	      7.85839796	      7.09397207	    -20.27862400	     19.11441670	     47.93920727	      0.00000000	     34.32000000
      2.89000000	      3.50730480	     -3.65068130	     -8.94492304	     -0.00467757	      0.00345959	      0.00135824	    -20.66996144	     -6.03275390	    -11.62522388	     -3.84817255	      7.82985551	      7.10356228	    -20.29737794	     19.08970846	     47.93890391	      0.00000000	     34.32000000
      2.90000000	      3.50819208	     -3.65285611	     -8.94599787	     -0.00477406	      0.00349657	      0.00122497	    -20.67009066	     -6.03268230	    -11.62636013	     -3.84763972	      7.82813624	      7.10396954	    -20.29855936	     19.08823519	     47.93881598	      0.00000000	     34.32000000
      2.91000000	      3.28717628	     -3.63670368	     -8.88618116	     -0.00477713	      0.00363129	      0.00112912	    -20.69819986	     -6.22009478	    -11.60513879	     -4.01064213	      7.88237209	      7.15641058	    -21.41697900	     18.86821855	     48.30900232	      0.00000000	     34.32000000
      2.92000000	      3.28713534	     -3.63634924	     -8.88578003	     -0.00473433	      0.00361951	      0.00114483	    -20.69819691	     -6.22022492	    -11.60496945	     -4.01079567	      7.88258022	      7.15644312	    -21.41686866	     18.86816007	     48.30905638	      0.00000000	     34.32000000
      2.93000000	      3.28783788	     -3.63484058	     -8.88421490	     -0.00460845	      0.00352168	      0.00118224	    -20.69799045	     -6.22110980	    -11.60422380	     -4.01157635	      7.88294585	      7.15663221	    -21.41647605	     18.86782298	     48.30909370	      0.00000000	     34.32000000
      2.94000000	      3.31958392	     -3.59314552	     -8.86347854	     -0.00467243	      0.00355069	      0.00119510	    -20.69075482	     -6.24532908	    -11.58442128	     -4.03101101	      7.88641712	      7.16311706	    -21.40853712	     18.85933379	     48.30936220	      0.00000000	     34.32000000
      2.95000000	      3.31966875	     -3.59252015	     -8.86352870	     -0.00463818	      0.00358383	      0.00121574	    -20.69060119	     -6.24532679	    -11.58421876	     -4.03100338	      7.88641293	      7.16321491	    -21.40855760	     18.85921382	     48.30931596	      0.00000000	     34.32000000
      2.96000000	      3.33305539	     -3.55534259	     -8.86135122	     -0.00465476	      0.00371602	      0.00125031	    -20.68017623	     -6.24960587	    -11.56938648	     -4.03146437	      7.87833608	      7.16553027	    -21.41195006	     18.83203030	     48.30264987	      0.00000000	     34.32000000
      2.97000000	      3.32503637	     -3.48814883	     -8.84987507	     -0.00464329	      0.00377755	      0.00114098	    -20.66543335	     -6.25303043	    -11.54283513	     -4.03335985	      7.87863914	      7.16507817	    -21.41000811	     18.79049663	     48.29256069	      0.00000000	     34.32000000
      2.98000000	      3.31424441	     -3.41126140	     -8.85273398	     -0.00453169	      0.00377679	      0.00094295	    -20.64779949	     -6.25448396	    -11.52365187	     -4.02715558	      7.85615912	      7.16910335	    -21.41028859	     18.71934252	     48.27741377	      0.00000000	     34.32000000
      2.99000000	      3.25383916	     -3.31374361	     -8.87794308	     -0.00447871	      0.00368577	      0.00069603	    -20.64214858	     -6.24597743	    -11.54321687	     -4.00537902	      7.80346499	      7.17834275	    -21.41512302	     18.58658931	     48.24386264	      0.00000000	     34.32000000
      3.00000000	      3.28277394	     -3.31785615	     -8.87997998	     -0.00443860	      0.00368981	      0.00068430	    -20.64351222	     -6.25543777	    -11.55512007	     -4.00656485	      7.78117285	      7.18706596	    -21.42103827	     18.56447742	     48.23723774	      0.00000000	     34.32000000
